<?xml version="1.0" encoding="UTF-8" standalone="no"?>
<!DOCTYPE svg PUBLIC "-//W3C//DTD SVG 1.1//EN" "http://www.w3.org/Graphics/SVG/1.1/DTD/svg11.dtd">
<svg width="100%" height="100%" viewBox="0 0 5808 1696" version="1.1" xmlns="http://www.w3.org/2000/svg" xmlns:xlink="http://www.w3.org/1999/xlink" xml:space="preserve" xmlns:serif="http://www.serif.com/" style="fill-rule:evenodd;clip-rule:evenodd;stroke-linejoin:round;stroke-miterlimit:1.41421;">
    <g transform="matrix(4.16667,0,0,4.16667,-1075,-1402.08)">
        <g transform="matrix(1.15682,0,0,1.65447,-113.34,103.22)">
            <path d="M812,186.332C812,174.309 805.169,162.779 793.011,154.277C780.852,145.776 764.362,141 747.167,141C653.127,141 479.873,141 385.833,141C368.638,141 352.148,145.776 339.989,154.277C327.831,162.779 321,174.309 321,186.332C321,230.554 321,297.446 321,341.668C321,353.691 327.831,365.221 339.989,373.723C352.148,382.224 368.638,387 385.833,387C479.873,387 653.127,387 747.167,387C764.362,387 780.852,382.224 793.011,373.723C805.169,365.221 812,353.691 812,341.668C812,297.446 812,230.554 812,186.332Z" style="fill:rgb(32,62,132);"/>
        </g>
        <g transform="matrix(4.75034e-17,-0.776892,1.11169,6.79828e-17,435.396,1668.05)">
            <path d="M1681.18,450.872C1686.06,459.195 1684.69,468.67 1677.52,476.138C1670.35,483.607 1658.32,488.088 1645.45,488.088C1548.84,488.088 1355.16,488.088 1258.55,488.088C1245.68,488.088 1233.65,483.607 1226.48,476.138C1219.31,468.67 1217.94,459.195 1222.82,450.872C1258.76,389.554 1326.5,274 1326.5,274L1577.5,274C1577.5,274 1645.24,389.554 1681.18,450.872Z" style="fill:rgb(32,62,132);"/>
        </g>
        <g transform="matrix(1,0,0,1,-163.984,-55.472)">
            <path d="M532.864,551.984L503.488,551.984L503.488,545.36C503.488,538.64 501.904,532.832 498.736,527.936C495.568,523.04 490.24,520.592 482.752,520.592C478.72,520.592 475.456,521.36 472.96,522.896C470.464,524.432 468.448,526.352 466.912,528.656C465.376,531.152 464.32,533.984 463.744,537.152C463.168,540.32 462.88,543.632 462.88,547.088C462.88,551.12 463.024,554.48 463.312,557.168C463.6,559.856 464.32,562.256 465.472,564.368C466.624,566.48 468.304,568.304 470.512,569.84C472.72,571.376 475.744,572.912 479.584,574.448L502.048,583.376C508.576,585.872 513.856,588.8 517.888,592.16C521.92,595.52 525.088,599.408 527.392,603.824C529.504,608.432 530.944,613.664 531.712,619.52C532.48,625.376 532.864,632.048 532.864,639.536C532.864,648.176 532,656.192 530.272,663.584C528.544,670.976 525.76,677.264 521.92,682.448C517.888,687.824 512.608,692.048 506.08,695.12C499.552,698.192 491.584,699.728 482.176,699.728C475.072,699.728 468.448,698.48 462.304,695.984C456.16,693.488 450.88,690.032 446.464,685.616C442.048,681.2 438.544,676.064 435.952,670.208C433.36,664.352 432.064,657.968 432.064,651.056L432.064,640.112L461.44,640.112L461.44,649.328C461.44,654.704 463.024,659.552 466.192,663.872C469.36,668.192 474.688,670.352 482.176,670.352C487.168,670.352 491.056,669.632 493.84,668.192C496.624,666.752 498.784,664.688 500.32,662C501.856,659.312 502.768,656.096 503.056,652.352C503.344,648.608 503.488,644.432 503.488,639.824C503.488,634.448 503.296,630.032 502.912,626.576C502.528,623.12 501.76,620.336 500.608,618.224C499.264,616.112 497.488,614.384 495.28,613.04C493.072,611.696 490.144,610.256 486.496,608.72L465.472,600.08C452.8,594.896 444.304,588.032 439.984,579.488C435.664,570.944 433.504,560.24 433.504,547.376C433.504,539.696 434.56,532.4 436.672,525.488C438.784,518.576 441.952,512.624 446.176,507.632C450.208,502.64 455.344,498.656 461.584,495.68C467.824,492.704 475.264,491.216 483.904,491.216C491.2,491.216 497.872,492.56 503.92,495.248C509.968,497.936 515.2,501.488 519.616,505.904C528.448,515.12 532.864,525.68 532.864,537.584L532.864,551.984Z" style="fill-rule:nonzero;"/>
            <path d="M574.048,698L574.048,520.592L540.064,520.592L540.064,492.944L637.408,492.944L637.408,520.592L603.424,520.592L603.424,698L574.048,698Z" style="fill-rule:nonzero;"/>
            <path d="M679.744,520.592L679.744,584.528L696.448,584.528C701.632,584.528 705.76,583.808 708.832,582.368C711.904,580.928 714.304,578.864 716.032,576.176C717.568,573.488 718.624,570.176 719.2,566.24C719.776,562.304 720.064,557.744 720.064,552.56C720.064,547.376 719.776,542.816 719.2,538.88C718.624,534.944 717.472,531.536 715.744,528.656C712.096,523.28 705.184,520.592 695.008,520.592L679.744,520.592ZM650.368,698L650.368,492.944L697.6,492.944C732.16,492.944 749.44,513.008 749.44,553.136C749.44,565.232 747.568,575.504 743.824,583.952C740.08,592.4 733.504,599.216 724.096,604.4L755.776,698L724.672,698L697.312,610.448L679.744,610.448L679.744,698L650.368,698Z" style="fill-rule:nonzero;"/>
            <path d="M773.056,698L773.056,492.944L860.608,492.944L860.608,520.592L802.432,520.592L802.432,580.784L853.12,580.784L853.12,608.432L802.432,608.432L802.432,668.624L860.608,668.624L860.608,698L773.056,698Z" style="fill-rule:nonzero;"/>
            <path d="M938.944,626.288L924.544,551.984L923.968,551.984L909.568,626.288L938.944,626.288ZM866.368,698L912.16,492.944L936.64,492.944L982.432,698L953.056,698L944.416,653.936L904.384,653.936L895.744,698L866.368,698Z" style="fill-rule:nonzero;"/>
            <path d="M996.832,698L996.832,492.944L1025.06,492.944L1062.78,601.52L1063.36,601.52L1100.8,492.944L1129.31,492.944L1129.31,698L1099.94,698L1099.94,573.296L1099.36,573.296L1070.27,661.424L1055.58,661.424L1026.78,573.296L1026.21,573.296L1026.21,698L996.832,698Z" style="fill-rule:nonzero;"/>
            <path d="M1250.27,639.536L1250.27,652.208C1250.27,658.544 1249.07,664.544 1246.67,670.208C1244.27,675.872 1240.96,680.912 1236.74,685.328C1232.51,689.744 1227.57,693.248 1221.9,695.84C1216.24,698.432 1210.14,699.728 1203.62,699.728C1198.05,699.728 1192.38,698.96 1186.62,697.424C1180.86,695.888 1175.68,693.2 1171.07,689.36C1166.46,685.52 1162.67,680.576 1159.7,674.528C1156.72,668.48 1155.23,660.752 1155.23,651.344L1155.23,538.448C1155.23,531.728 1156.38,525.488 1158.69,519.728C1160.99,513.968 1164.26,508.976 1168.48,504.752C1172.7,500.528 1177.74,497.216 1183.6,494.816C1189.46,492.416 1195.94,491.216 1203.04,491.216C1216.86,491.216 1228.1,495.728 1236.74,504.752C1240.96,509.168 1244.27,514.4 1246.67,520.448C1249.07,526.496 1250.27,533.072 1250.27,540.176L1250.27,551.696L1220.9,551.696L1220.9,541.904C1220.9,536.144 1219.26,531.152 1216,526.928C1212.74,522.704 1208.32,520.592 1202.75,520.592C1195.46,520.592 1190.61,522.848 1188.21,527.36C1185.81,531.872 1184.61,537.584 1184.61,544.496L1184.61,649.328C1184.61,655.28 1185.9,660.272 1188.5,664.304C1191.09,668.336 1195.74,670.352 1202.46,670.352C1204.38,670.352 1206.45,670.016 1208.66,669.344C1210.86,668.672 1212.93,667.568 1214.85,666.032C1216.58,664.496 1218.02,662.384 1219.17,659.696C1220.32,657.008 1220.9,653.648 1220.9,649.616L1220.9,639.536L1250.27,639.536Z" style="fill:white;fill-rule:nonzero;"/>
            <path d="M1333.5,626.288L1319.1,551.984L1318.53,551.984L1304.13,626.288L1333.5,626.288ZM1260.93,698L1306.72,492.944L1331.2,492.944L1376.99,698L1347.62,698L1338.98,653.936L1298.94,653.936L1290.3,698L1260.93,698Z" style="fill:white;fill-rule:nonzero;"/>
            <path d="M1486.43,551.984L1457.06,551.984L1457.06,545.36C1457.06,538.64 1455.47,532.832 1452.3,527.936C1449.14,523.04 1443.81,520.592 1436.32,520.592C1432.29,520.592 1429.02,521.36 1426.53,522.896C1424.03,524.432 1422.02,526.352 1420.48,528.656C1418.94,531.152 1417.89,533.984 1417.31,537.152C1416.74,540.32 1416.45,543.632 1416.45,547.088C1416.45,551.12 1416.59,554.48 1416.88,557.168C1417.17,559.856 1417.89,562.256 1419.04,564.368C1420.19,566.48 1421.87,568.304 1424.08,569.84C1426.29,571.376 1429.31,572.912 1433.15,574.448L1455.62,583.376C1462.14,585.872 1467.42,588.8 1471.46,592.16C1475.49,595.52 1478.66,599.408 1480.96,603.824C1483.07,608.432 1484.51,613.664 1485.28,619.52C1486.05,625.376 1486.43,632.048 1486.43,639.536C1486.43,648.176 1485.57,656.192 1483.84,663.584C1482.11,670.976 1479.33,677.264 1475.49,682.448C1471.46,687.824 1466.18,692.048 1459.65,695.12C1453.12,698.192 1445.15,699.728 1435.74,699.728C1428.64,699.728 1422.02,698.48 1415.87,695.984C1409.73,693.488 1404.45,690.032 1400.03,685.616C1395.62,681.2 1392.11,676.064 1389.52,670.208C1386.93,664.352 1385.63,657.968 1385.63,651.056L1385.63,640.112L1415.01,640.112L1415.01,649.328C1415.01,654.704 1416.59,659.552 1419.76,663.872C1422.93,668.192 1428.26,670.352 1435.74,670.352C1440.74,670.352 1444.62,669.632 1447.41,668.192C1450.19,666.752 1452.35,664.688 1453.89,662C1455.42,659.312 1456.34,656.096 1456.62,652.352C1456.91,648.608 1457.06,644.432 1457.06,639.824C1457.06,634.448 1456.86,630.032 1456.48,626.576C1456.1,623.12 1455.33,620.336 1454.18,618.224C1452.83,616.112 1451.06,614.384 1448.85,613.04C1446.64,611.696 1443.71,610.256 1440.06,608.72L1419.04,600.08C1406.37,594.896 1397.87,588.032 1393.55,579.488C1389.23,570.944 1387.07,560.24 1387.07,547.376C1387.07,539.696 1388.13,532.4 1390.24,525.488C1392.35,518.576 1395.52,512.624 1399.74,507.632C1403.78,502.64 1408.91,498.656 1415.15,495.68C1421.39,492.704 1428.83,491.216 1437.47,491.216C1444.77,491.216 1451.44,492.56 1457.49,495.248C1463.54,497.936 1468.77,501.488 1473.18,505.904C1482.02,515.12 1486.43,525.68 1486.43,537.584L1486.43,551.984Z" style="fill:white;fill-rule:nonzero;"/>
            <path d="M1527.62,698L1527.62,520.592L1493.63,520.592L1493.63,492.944L1590.98,492.944L1590.98,520.592L1556.99,520.592L1556.99,698L1527.62,698Z" style="fill:white;fill-rule:nonzero;"/>
            <path d="M1603.94,698L1603.94,492.944L1691.49,492.944L1691.49,520.592L1633.31,520.592L1633.31,580.784L1684,580.784L1684,608.432L1633.31,608.432L1633.31,668.624L1691.49,668.624L1691.49,698L1603.94,698Z" style="fill:white;fill-rule:nonzero;"/>
            <path d="M1739.87,520.592L1739.87,584.528L1756.58,584.528C1761.76,584.528 1765.89,583.808 1768.96,582.368C1772.03,580.928 1774.43,578.864 1776.16,576.176C1777.7,573.488 1778.75,570.176 1779.33,566.24C1779.9,562.304 1780.19,557.744 1780.19,552.56C1780.19,547.376 1779.9,542.816 1779.33,538.88C1778.75,534.944 1777.6,531.536 1775.87,528.656C1772.22,523.28 1765.31,520.592 1755.14,520.592L1739.87,520.592ZM1710.5,698L1710.5,492.944L1757.73,492.944C1792.29,492.944 1809.57,513.008 1809.57,553.136C1809.57,565.232 1807.7,575.504 1803.95,583.952C1800.21,592.4 1793.63,599.216 1784.22,604.4L1815.9,698L1784.8,698L1757.44,610.448L1739.87,610.448L1739.87,698L1710.5,698Z" style="fill:white;fill-rule:nonzero;"/>
        </g>
    </g>
</svg>
