<?xml version="1.0" standalone="no"?>
<!DOCTYPE svg PUBLIC "-//W3C//DTD SVG 20010904//EN"
 "http://www.w3.org/TR/2001/REC-SVG-20010904/DTD/svg10.dtd">
<svg version="1.0" xmlns="http://www.w3.org/2000/svg"
 width="700.000000pt" height="700.000000pt" viewBox="0 0 700.000000 700.000000"
 preserveAspectRatio="xMidYMid meet">
<metadata>
Created by potrace 1.11, written by Peter Selinger 2001-2013
</metadata>
<g transform="translate(0.000000,700.000000) scale(0.100000,-0.100000)"
fill="#000000" stroke="none">
<path d="M1619 6996 c-2 -2 -34 -6 -71 -10 -69 -6 -190 -29 -243 -46 -16 -5
-41 -11 -55 -14 -53 -10 -218 -79 -322 -133 -223 -118 -445 -311 -594 -518
-162 -225 -251 -439 -311 -745 -16 -77 -17 -254 -19 -1990 -1 -1048 1 -1932 6
-1965 4 -33 11 -82 15 -110 3 -27 8 -58 11 -67 3 -9 7 -25 9 -37 20 -106 82
-275 149 -407 40 -79 146 -250 165 -264 3 -3 20 -23 36 -45 63 -84 219 -231
329 -310 16 -11 34 -26 41 -32 8 -7 16 -13 19 -13 3 0 29 -15 58 -34 91 -58
318 -164 318 -149 0 3 6 1 13 -5 14 -12 194 -62 244 -68 17 -3 53 -10 80 -16
36 -9 539 -12 1963 -14 2101 -2 2024 -4 2252 61 309 87 555 230 773 450 230
231 383 500 460 810 56 223 54 142 51 2215 -2 1746 -4 1922 -19 1995 -9 44
-19 89 -21 100 -20 99 -80 270 -131 375 -259 527 -742 881 -1325 970 -107 17
-253 18 -1996 19 -1035 0 -1883 -1 -1885 -3z"/>
</g>
</svg>
